<?xml version="1.0" encoding="UTF-8"?>
<svg width="100" height="100" viewBox="0 0 100 100" xmlns="http://www.w3.org/2000/svg">
    <path d="M50 0L93.3 25V75L50 100L6.7 75V25L50 0Z" fill="#8247E5"/>
    <path d="M71.4 60.9C70 61.7 68.3 61.7 66.9 60.9L54.8 54.2L42.7 60.9C41.3 61.7 39.6 61.7 38.2 60.9L28.6 55.4C27.2 54.6 26.3 53.1 26.3 51.5V40.5C26.3 38.9 27.2 37.4 28.6 36.6L38.2 31.1C39.6 30.3 41.3 30.3 42.7 31.1L54.8 37.8L66.9 31.1C68.3 30.3 70 30.3 71.4 31.1L81 36.6C82.4 37.4 83.3 38.9 83.3 40.5V51.5C83.3 53.1 82.4 54.6 81 55.4L71.4 60.9Z" fill="white"/>
</svg>